
<svg width="337" height="60" viewBox="0 0 337 60" fill="none" xmlns="http://www.w3.org/2000/svg">
    <path d="M31.168 34.96C33.7707 35.5147 35.8613 36.816 37.44 38.864C39.0187 40.8693 39.808 43.1733 39.808 45.776C39.808 49.5307 38.4853 52.5173 35.84 54.736C33.2373 56.912 29.5893 58 24.896 58H3.968V13.072H24.192C28.7573 13.072 32.32 14.1173 34.88 16.208C37.4827 18.2987 38.784 21.136 38.784 24.72C38.784 27.3653 38.08 29.5627 36.672 31.312C35.3067 33.0613 33.472 34.2773 31.168 34.96ZM14.912 31.248H22.08C23.872 31.248 25.2373 30.864 26.176 30.096C27.1573 29.2853 27.648 28.112 27.648 26.576C27.648 25.04 27.1573 23.8667 26.176 23.056C25.2373 22.2453 23.872 21.84 22.08 21.84H14.912V31.248ZM22.976 49.168C24.8107 49.168 26.2187 48.7627 27.2 47.952C28.224 47.0987 28.736 45.8827 28.736 44.304C28.736 42.7253 28.2027 41.488 27.136 40.592C26.112 39.696 24.6827 39.248 22.848 39.248H14.912V49.168H22.976ZM57.0995 28.24C58.3795 26.2773 59.9795 24.7413 61.8995 23.632C63.8195 22.48 65.9528 21.904 68.2995 21.904V33.488H65.2915C62.5608 33.488 60.5128 34.0853 59.1475 35.28C57.7822 36.432 57.0995 38.48 57.0995 41.424V58H46.1555V22.288H57.0995V28.24ZM89.7865 58.512C86.2878 58.512 83.1305 57.7653 80.3145 56.272C77.5412 54.7787 75.3438 52.6453 73.7225 49.872C72.1438 47.0987 71.3545 43.856 71.3545 40.144C71.3545 36.4747 72.1652 33.2533 73.7865 30.48C75.4078 27.664 77.6265 25.5093 80.4425 24.016C83.2585 22.5227 86.4158 21.776 89.9145 21.776C93.4132 21.776 96.5705 22.5227 99.3865 24.016C102.203 25.5093 104.421 27.664 106.043 30.48C107.664 33.2533 108.475 36.4747 108.475 40.144C108.475 43.8133 107.643 47.056 105.979 49.872C104.357 52.6453 102.117 54.7787 99.2585 56.272C96.4425 57.7653 93.2852 58.512 89.7865 58.512ZM89.7865 49.04C91.8772 49.04 93.6478 48.272 95.0985 46.736C96.5918 45.2 97.3385 43.0027 97.3385 40.144C97.3385 37.2853 96.6132 35.088 95.1625 33.552C93.7545 32.016 92.0052 31.248 89.9145 31.248C87.7812 31.248 86.0105 32.016 84.6025 33.552C83.1945 35.0453 82.4905 37.2427 82.4905 40.144C82.4905 43.0027 83.1732 45.2 84.5385 46.736C85.9465 48.272 87.6958 49.04 89.7865 49.04ZM165.545 22.288L155.881 58H143.785L138.153 34.832L132.329 58H120.297L110.569 22.288H121.513L126.569 47.824L132.585 22.288H144.169L150.249 47.696L155.241 22.288H165.545ZM184.246 58.512C181.131 58.512 178.358 57.9787 175.926 56.912C173.494 55.8453 171.574 54.3947 170.166 52.56C168.758 50.6827 167.969 48.592 167.798 46.288H178.614C178.742 47.5253 179.318 48.528 180.342 49.296C181.366 50.064 182.625 50.448 184.118 50.448C185.483 50.448 186.529 50.192 187.254 49.68C188.022 49.1253 188.406 48.4213 188.406 47.568C188.406 46.544 187.873 45.7973 186.806 45.328C185.739 44.816 184.011 44.2613 181.622 43.664C179.062 43.0667 176.929 42.448 175.222 41.808C173.515 41.1253 172.043 40.08 170.806 38.672C169.569 37.2213 168.95 35.28 168.95 32.848C168.95 30.8 169.505 28.944 170.614 27.28C171.766 25.5733 173.43 24.2293 175.606 23.248C177.825 22.2667 180.449 21.776 183.478 21.776C187.958 21.776 191.478 22.8853 194.038 25.104C196.641 27.3227 198.134 30.2667 198.518 33.936H188.406C188.235 32.6987 187.681 31.7173 186.742 30.992C185.846 30.2667 184.651 29.904 183.158 29.904C181.878 29.904 180.897 30.16 180.214 30.672C179.531 31.1413 179.19 31.8027 179.19 32.656C179.19 33.68 179.723 34.448 180.79 34.96C181.899 35.472 183.606 35.984 185.91 36.496C188.555 37.1787 190.71 37.8613 192.374 38.544C194.038 39.184 195.489 40.2507 196.726 41.744C198.006 43.1947 198.667 45.1573 198.71 47.632C198.71 49.7227 198.113 51.6 196.918 53.264C195.766 54.8853 194.081 56.1653 191.862 57.104C189.686 58.0427 187.147 58.512 184.246 58.512ZM239.069 39.568C239.069 40.592 239.006 41.6587 238.878 42.768H214.11C214.28 44.9867 214.984 46.6933 216.222 47.888C217.502 49.04 219.059 49.616 220.894 49.616C223.624 49.616 225.523 48.464 226.59 46.16H238.238C237.64 48.5067 236.552 50.6187 234.974 52.496C233.438 54.3733 231.496 55.8453 229.15 56.912C226.803 57.9787 224.179 58.512 221.278 58.512C217.779 58.512 214.664 57.7653 211.934 56.272C209.203 54.7787 207.07 52.6453 205.534 49.872C203.998 47.0987 203.23 43.856 203.23 40.144C203.23 36.432 203.976 33.1893 205.47 30.416C207.006 27.6427 209.139 25.5093 211.87 24.016C214.6 22.5227 217.736 21.776 221.278 21.776C224.734 21.776 227.806 22.5013 230.494 23.952C233.182 25.4027 235.272 27.472 236.766 30.16C238.302 32.848 239.069 35.984 239.069 39.568ZM227.87 36.688C227.87 34.8107 227.23 33.3173 225.95 32.208C224.67 31.0987 223.07 30.544 221.15 30.544C219.315 30.544 217.758 31.0773 216.478 32.144C215.24 33.2107 214.472 34.7253 214.174 36.688H227.87ZM255.787 28.24C257.067 26.2773 258.667 24.7413 260.587 23.632C262.507 22.48 264.64 21.904 266.987 21.904V33.488H263.979C261.248 33.488 259.2 34.0853 257.835 35.28C256.47 36.432 255.787 38.48 255.787 41.424V58H244.843V22.288H255.787V28.24Z" fill="black"/>
    <path d="M278.088 58.512C276.168 58.512 274.589 57.9573 273.352 56.848C272.157 55.696 271.56 54.288 271.56 52.624C271.56 50.9173 272.157 49.488 273.352 48.336C274.589 47.184 276.168 46.608 278.088 46.608C279.965 46.608 281.501 47.184 282.696 48.336C283.933 49.488 284.552 50.9173 284.552 52.624C284.552 54.288 283.933 55.696 282.696 56.848C281.501 57.9573 279.965 58.512 278.088 58.512Z" fill="#005AFF"/>
    <g clip-path="url(#clip0_1_43)">
        <path d="M296 18C291.029 18 287 13.9706 287 9C287 4.02943 291.029 0 296 0C300.971 0 305 4.02943 305 9C304.994 13.9682 300.968 17.9943 296 18ZM296 0.620684C291.372 0.620684 287.621 4.37224 287.621 9C287.621 13.6278 291.372 17.3793 296 17.3793C300.628 17.3793 304.379 13.6278 304.379 9C304.374 4.37442 300.626 0.625957 296 0.620684Z" fill="#005AFF"/>
        <path d="M296 18C295.918 18 295.839 17.9674 295.78 17.9092C295.722 17.8509 295.69 17.772 295.69 17.6896V0.310359C295.69 0.138938 295.829 0 296 0C296.171 0 296.31 0.138938 296.31 0.310359V17.6897C296.31 17.772 296.278 17.851 296.22 17.9092C296.161 17.9674 296.082 18 296 18Z" fill="#005AFF"/>
        <path d="M296 18C295.954 18 295.909 17.9985 295.864 17.997L295.795 17.9949C295.726 17.9933 295.66 17.969 295.607 17.9258C292.911 15.7466 291.345 12.4661 291.345 9C291.345 5.53387 292.911 2.25338 295.607 0.07425C295.66 0.031043 295.726 0.00675 295.795 0.00513281L295.864 0.00302344C295.909 0.00151172 295.954 0 296 0C296.171 0 296.31 0.138938 296.31 0.310359C296.31 0.481781 296.171 0.620719 296 0.620719C295.972 0.620719 295.945 0.621316 295.917 0.62223C293.415 2.6846 291.966 5.75743 291.966 9C291.966 12.2426 293.415 15.3154 295.917 17.3778C295.945 17.3787 295.972 17.3793 296 17.3793C296.171 17.3793 296.31 17.5183 296.31 17.6897C296.31 17.8611 296.171 18 296 18Z" fill="#005AFF"/>
        <path d="M296 5.27586C293.689 5.27962 291.431 4.58205 289.524 3.2753C289.433 3.21282 289.381 3.10609 289.39 2.99542C289.398 2.88475 289.465 2.78698 289.565 2.73902C289.665 2.69107 289.783 2.70028 289.875 2.76311C291.678 3.99909 293.814 4.65884 296 4.65518C298.186 4.65884 300.322 3.99909 302.125 2.76311C302.267 2.66678 302.46 2.70313 302.556 2.84435C302.653 2.98561 302.617 3.17841 302.476 3.2753C300.569 4.58205 298.311 5.27962 296 5.27586Z" fill="#005AFF"/>
        <path d="M302.474 15.1045C302.409 15.1044 302.347 15.0843 302.294 15.0469C298.527 12.3637 293.473 12.3637 289.706 15.0469C289.566 15.1463 289.372 15.1137 289.273 14.9741C289.174 14.8345 289.206 14.6408 289.346 14.5414C293.328 11.7046 298.672 11.7046 302.654 14.5414C302.764 14.6197 302.811 14.7602 302.77 14.8888C302.729 15.0174 302.609 15.1046 302.474 15.1045Z" fill="#005AFF"/>
        <path d="M296 18C295.829 18 295.69 17.8611 295.69 17.6896C295.69 17.5182 295.829 17.3793 296 17.3793C296.028 17.3793 296.055 17.3786 296.083 17.3778C298.585 15.3154 300.034 12.2426 300.034 9C300.034 5.75743 298.585 2.6846 296.083 0.622195C296.055 0.621316 296.028 0.620684 296 0.620684C295.829 0.620684 295.69 0.481746 295.69 0.310324C295.69 0.138902 295.829 0 296 0C296.046 0 296.091 0.00151172 296.136 0.00302344L296.205 0.00513281C296.274 0.00675 296.34 0.031043 296.393 0.07425C299.089 2.25338 300.655 5.53387 300.655 9C300.655 12.4661 299.089 15.7466 296.393 17.9258C296.34 17.969 296.274 17.9933 296.205 17.9949L296.136 17.997C296.091 17.9985 296.046 18 296 18Z" fill="#005AFF"/>
        <path d="M304.69 9.31036H287.31C287.139 9.31036 287 9.17139 287 9C287 8.82861 287.139 8.68964 287.31 8.68964H304.69C304.861 8.68964 305 8.82858 305 9C305 9.17142 304.861 9.31036 304.69 9.31036Z" fill="#005AFF"/>
    </g>
    <rect x="291" y="22" width="10" height="36" fill="#005AFF"/>
    <path d="M322.496 58.512C319.381 58.512 316.608 57.9787 314.176 56.912C311.744 55.8453 309.824 54.3947 308.416 52.56C307.008 50.6827 306.219 48.592 306.048 46.288H316.864C316.992 47.5253 317.568 48.528 318.592 49.296C319.616 50.064 320.875 50.448 322.368 50.448C323.733 50.448 324.779 50.192 325.504 49.68C326.272 49.1253 326.656 48.4213 326.656 47.568C326.656 46.544 326.123 45.7973 325.056 45.328C323.989 44.816 322.261 44.2613 319.872 43.664C317.312 43.0667 315.179 42.448 313.472 41.808C311.765 41.1253 310.293 40.08 309.056 38.672C307.819 37.2213 307.2 35.28 307.2 32.848C307.2 30.8 307.755 28.944 308.864 27.28C310.016 25.5733 311.68 24.2293 313.856 23.248C316.075 22.2667 318.699 21.776 321.728 21.776C326.208 21.776 329.728 22.8853 332.288 25.104C334.891 27.3227 336.384 30.2667 336.768 33.936H326.656C326.485 32.6987 325.931 31.7173 324.992 30.992C324.096 30.2667 322.901 29.904 321.408 29.904C320.128 29.904 319.147 30.16 318.464 30.672C317.781 31.1413 317.44 31.8027 317.44 32.656C317.44 33.68 317.973 34.448 319.04 34.96C320.149 35.472 321.856 35.984 324.16 36.496C326.805 37.1787 328.96 37.8613 330.624 38.544C332.288 39.184 333.739 40.2507 334.976 41.744C336.256 43.1947 336.917 45.1573 336.96 47.632C336.96 49.7227 336.363 51.6 335.168 53.264C334.016 54.8853 332.331 56.1653 330.112 57.104C327.936 58.0427 325.397 58.512 322.496 58.512Z" fill="#005AFF"/>
    <defs>
        <clipPath id="clip0_1_43">
            <rect width="18" height="18" fill="white" transform="translate(287)"/>
        </clipPath>
    </defs>
</svg>
