<?xml version="1.0" standalone="no"?>
<!DOCTYPE svg PUBLIC "-//W3C//DTD SVG 20010904//EN"
 "http://www.w3.org/TR/2001/REC-SVG-20010904/DTD/svg10.dtd">
<svg version="1.0" xmlns="http://www.w3.org/2000/svg"
 width="512.000000pt" height="512.000000pt" viewBox="0 0 512.000000 512.000000"
 preserveAspectRatio="xMidYMid meet">
<metadata>
Created by potrace 1.11, written by Peter Selinger 2001-2013
</metadata>
<g transform="translate(0.000000,512.000000) scale(0.100000,-0.100000)"
fill="#000000" stroke="none">
<path d="M2370 5110 c-384 -30 -788 -156 -1098 -341 -686 -410 -1127 -1066
-1243 -1849 -30 -204 -30 -516 0 -720 24 -158 71 -353 121 -495 253 -718 837
-1302 1555 -1555 450 -158 948 -187 1415 -84 957 213 1721 977 1934 1934 64
290 78 639 37 920 -116 786 -561 1445 -1252 1854 -416 246 -980 375 -1469 336z
m-232 -302 c-234 -254 -379 -455 -520 -724 -33 -63 -65 -114 -72 -114 -61 0
-525 220 -617 291 l-24 19 50 46 c316 284 708 484 1118 569 188 39 186 43 65
-87z m885 91 c224 -45 430 -117 626 -220 185 -97 370 -225 501 -345 l61 -57
-48 -32 c-135 -91 -529 -275 -589 -275 -7 0 -39 51 -72 114 -141 269 -286 470
-520 724 -118 127 -120 124 41 91z m-553 -559 l0 -540 -67 0 c-122 0 -461 48
-568 80 -16 5 -49 14 -73 20 l-43 11 47 87 c161 298 337 533 572 765 65 64
122 117 125 117 4 0 7 -243 7 -540z m312 423 c235 -232 411 -467 572 -765 l47
-87 -43 -11 c-24 -6 -56 -15 -73 -20 -107 -32 -446 -80 -567 -80 l-68 0 0 540
c0 297 3 540 7 540 3 0 60 -53 125 -117z m-1901 -674 c91 -63 443 -231 562
-269 20 -6 37 -15 37 -20 0 -5 -16 -50 -35 -101 -102 -266 -170 -581 -196
-901 l-12 -148 -529 0 -528 0 0 58 c1 203 81 543 187 791 92 216 255 477 386
618 l30 33 36 -22 c20 -12 48 -29 62 -39z m3579 -94 c257 -339 424 -758 469
-1177 6 -54 11 -113 11 -133 l0 -35 -528 0 -529 0 -12 148 c-26 320 -94 635
-196 901 -19 51 -35 96 -35 101 0 5 17 14 38 20 131 42 437 190 592 288 l65
40 29 -31 c15 -18 59 -72 96 -122z m-2745 -261 c154 -47 524 -104 678 -104
l77 0 0 -490 0 -490 -530 0 -530 0 0 23 c0 109 40 403 76 567 33 147 131 455
160 501 7 12 10 11 69 -7z m1782 -49 c116 -297 183 -600 208 -942 l7 -93 -531
0 -531 0 0 490 0 490 78 0 c152 0 532 59 672 104 25 8 51 14 59 13 8 -1 25
-29 38 -62z m-2253 -1317 c20 -295 76 -580 167 -852 22 -65 36 -122 32 -126
-4 -4 -26 -13 -48 -20 -116 -37 -399 -178 -559 -278 -54 -34 -101 -62 -105
-62 -7 1 -111 139 -168 225 -148 221 -274 522 -333 792 -27 123 -50 290 -50
366 l0 57 529 0 528 0 7 -102z m1226 -343 l0 -445 -67 0 c-153 0 -454 -46
-662 -101 -68 -18 -118 -26 -123 -21 -13 13 -85 231 -113 342 -46 184 -75 368
-90 578 l-7 92 531 0 531 0 0 -445z m1235 353 c-15 -210 -44 -394 -90 -578
-28 -111 -100 -329 -113 -342 -5 -5 -55 3 -123 21 -208 55 -509 101 -661 101
l-68 0 0 445 0 445 531 0 531 0 -7 -92z m1231 -3 c-31 -449 -219 -931 -498
-1283 -47 -59 -52 -62 -72 -49 -180 118 -618 337 -675 337 -23 0 -20 25 18
137 91 271 147 557 167 851 l7 102 530 0 530 0 -7 -95z m-2466 -1550 c0 -322
-3 -585 -7 -585 -3 0 -60 53 -125 117 -192 189 -351 389 -483 608 -77 128
-171 312 -163 320 3 3 45 16 94 30 176 47 464 91 612 94 l72 1 0 -585z m425
570 c197 -23 511 -88 533 -110 8 -8 -87 -193 -163 -320 -132 -219 -291 -419
-483 -608 -65 -64 -122 -117 -125 -117 -4 0 -7 263 -7 585 l0 585 58 0 c31 0
116 -7 187 -15z m-1320 -272 c66 -141 187 -343 286 -478 98 -133 143 -187 277
-333 120 -129 123 -125 -62 -87 -425 86 -826 294 -1150 597 l-79 74 74 46
c115 71 254 146 353 190 118 53 228 97 241 97 6 0 33 -48 60 -106z m2180 49
c181 -77 411 -200 481 -258 l29 -24 -60 -55 c-33 -31 -100 -89 -150 -129 -284
-233 -655 -409 -1009 -481 -187 -38 -184 -42 -64 88 134 145 179 199 277 332
99 136 220 337 286 478 58 125 41 121 210 49z"/>
</g>
</svg>
